<svg width="26" height="26" viewBox="0 0 26 26" fill="none" xmlns="http://www.w3.org/2000/svg">
<path d="M23.8333 13C23.8333 7.02 18.98 2.16667 13 2.16667C7.01999 2.16667 2.16666 7.02 2.16666 13C2.16666 18.98 7.01999 23.8333 13 23.8333" stroke="black" stroke-width="1.5" stroke-linecap="round" stroke-linejoin="round"/>
<path d="M8.66667 3.25H9.75C7.63753 9.57837 7.63753 16.4216 9.75 22.75H8.66667M16.25 3.25C17.3008 6.41333 17.8317 9.70667 17.8317 13" stroke="black" stroke-width="1.5" stroke-linecap="round" stroke-linejoin="round"/>
<path d="M3.25 17.3333V16.25C6.41333 17.3008 9.70667 17.8317 13 17.8317M3.25 9.75C9.57837 7.63754 16.4216 7.63754 22.75 9.75M23.8333 23.8333L22.75 22.75M19.7167 23.1833C20.6361 23.1833 21.5178 22.8181 22.168 22.168C22.8181 21.5178 23.1833 20.6361 23.1833 19.7167C23.1833 18.7972 22.8181 17.9155 22.168 17.2654C21.5178 16.6152 20.6361 16.25 19.7167 16.25C18.7973 16.25 17.9155 16.6152 17.2654 17.2654C16.6152 17.9155 16.25 18.7972 16.25 19.7167C16.25 20.6361 16.6152 21.5178 17.2654 22.168C17.9155 22.8181 18.7973 23.1833 19.7167 23.1833Z" stroke="black" stroke-width="1.5" stroke-linecap="round" stroke-linejoin="round"/>
</svg>
